<svg width="48" height="48" viewBox="0 0 48 48" fill="none" xmlns="http://www.w3.org/2000/svg">
<rect x="20.1865" y="31.7646" width="7.62708" height="1.7" rx="0.85" fill="#78CBFF"/>
<path d="M42.8392 27.9893V38.3387C42.8392 41.1001 40.6006 43.3387 37.8392 43.3387H9.54775C6.78633 43.3387 4.54774 41.1001 4.54774 38.3387V27.9893" stroke="#263066" stroke-width="1.5" stroke-linecap="round"/>
<path d="M42.8392 27.9893V38.3387C42.8392 41.1001 40.6006 43.3387 37.8392 43.3387H9.54775C6.78633 43.3387 4.54774 41.1001 4.54774 38.3387V27.9893" stroke="black" stroke-opacity="0.2" stroke-width="1.5" stroke-linecap="round"/>
<path d="M8.55518 13.2681H38.8318C41.179 13.2681 43.0818 15.1709 43.0818 17.5181V23.4951C30.7271 28.9249 16.6599 28.9249 4.30518 23.4951V17.5181C4.30518 15.1709 6.20797 13.2681 8.55518 13.2681Z" stroke="#263066" stroke-width="1.5"/>
<path d="M8.55518 13.2681H38.8318C41.179 13.2681 43.0818 15.1709 43.0818 17.5181V23.4951C30.7271 28.9249 16.6599 28.9249 4.30518 23.4951V17.5181C4.30518 15.1709 6.20797 13.2681 8.55518 13.2681Z" stroke="black" stroke-opacity="0.2" stroke-width="1.5"/>
<path d="M29.9379 9.80041C29.9379 10.2146 30.2737 10.5504 30.6879 10.5504C31.1021 10.5504 31.4379 10.2146 31.4379 9.80041H29.9379ZM15.9493 9.80041C15.9493 10.2146 16.2851 10.5504 16.6993 10.5504C17.1135 10.5504 17.4493 10.2146 17.4493 9.80041H15.9493ZM21.6993 5.41138H25.6879V3.91138H21.6993V5.41138ZM29.9379 9.66138V9.80041H31.4379V9.66138H29.9379ZM17.4493 9.80041V9.66138H15.9493V9.80041H17.4493ZM25.6879 5.41138C28.0351 5.41138 29.9379 7.31417 29.9379 9.66138H31.4379C31.4379 6.48574 28.8635 3.91138 25.6879 3.91138V5.41138ZM21.6993 3.91138C18.5236 3.91138 15.9493 6.48574 15.9493 9.66138H17.4493C17.4493 7.31417 19.3521 5.41138 21.6993 5.41138V3.91138Z" fill="#263066"/>
<path d="M29.9379 9.80041C29.9379 10.2146 30.2737 10.5504 30.6879 10.5504C31.1021 10.5504 31.4379 10.2146 31.4379 9.80041H29.9379ZM15.9493 9.80041C15.9493 10.2146 16.2851 10.5504 16.6993 10.5504C17.1135 10.5504 17.4493 10.2146 17.4493 9.80041H15.9493ZM21.6993 5.41138H25.6879V3.91138H21.6993V5.41138ZM29.9379 9.66138V9.80041H31.4379V9.66138H29.9379ZM17.4493 9.80041V9.66138H15.9493V9.80041H17.4493ZM25.6879 5.41138C28.0351 5.41138 29.9379 7.31417 29.9379 9.66138H31.4379C31.4379 6.48574 28.8635 3.91138 25.6879 3.91138V5.41138ZM21.6993 3.91138C18.5236 3.91138 15.9493 6.48574 15.9493 9.66138H17.4493C17.4493 7.31417 19.3521 5.41138 21.6993 5.41138V3.91138Z" fill="black" fill-opacity="0.2"/>
</svg>
