<svg width="1920" height="540" viewBox="0 0 1920 540" fill="none" xmlns="http://www.w3.org/2000/svg">
<path d="M530.641 114.653C530.486 114.653 530.175 114.653 530.02 114.498L519.155 103.486C519 103.331 519 103.176 519 102.865C519 102.555 519.155 102.4 519.155 102.245L530.175 91.2327C530.486 90.9224 530.952 90.9224 531.262 91.2327L542.282 102.245C542.438 102.4 542.438 102.555 542.438 102.865C542.438 103.176 542.282 103.331 542.282 103.486L531.262 114.498C531.107 114.498 530.952 114.653 530.641 114.653ZM520.863 102.865L530.796 112.792L540.73 102.865L530.641 92.9388L520.863 102.865Z" fill="#E0E0E0"/>
<path d="M948.641 385.653C948.486 385.653 948.175 385.653 948.02 385.498L937.155 374.486C937 374.331 937 374.176 937 373.865C937 373.555 937.155 373.4 937.155 373.245L948.175 362.233C948.486 361.922 948.952 361.922 949.262 362.233L960.282 373.245C960.438 373.4 960.438 373.555 960.438 373.865C960.438 374.176 960.282 374.331 960.282 374.486L949.262 385.498C949.107 385.498 948.952 385.653 948.641 385.653ZM938.863 373.865L948.796 383.792L958.73 373.865L948.641 363.939L938.863 373.865Z" fill="#E0E0E0"/>
<path d="M1818.64 192.653C1818.49 192.653 1818.18 192.653 1818.02 192.498L1807.16 181.486C1807 181.331 1807 181.176 1807 180.865C1807 180.555 1807.16 180.4 1807.16 180.245L1818.18 169.233C1818.49 168.922 1818.95 168.922 1819.26 169.233L1830.28 180.245C1830.44 180.4 1830.44 180.555 1830.44 180.865C1830.44 181.176 1830.28 181.331 1830.28 181.486L1819.26 192.498C1819.11 192.498 1818.95 192.653 1818.64 192.653ZM1808.86 180.865L1818.8 190.792L1828.73 180.865L1818.64 170.939L1808.86 180.865Z" fill="#E0E0E0"/>
<path d="M490.091 134C489.975 134 489.743 133.884 489.627 133.884L484.174 128.435C483.942 128.203 483.942 127.855 484.174 127.623L489.627 122.174C489.859 121.942 490.207 121.942 490.439 122.174L495.893 127.623C496.009 127.739 496.009 127.855 496.009 128.087C496.009 128.203 495.893 128.435 495.893 128.551L490.439 134C490.439 133.884 490.323 134 490.091 134ZM485.45 127.971L490.091 132.609L494.732 127.971L490.091 123.333L485.45 127.971Z" fill="#E0E0E0"/>
<path d="M1036.09 128C1035.98 128 1035.74 127.884 1035.63 127.884L1030.17 122.435C1029.94 122.203 1029.94 121.855 1030.17 121.623L1035.63 116.174C1035.86 115.942 1036.21 115.942 1036.44 116.174L1041.89 121.623C1042.01 121.739 1042.01 121.855 1042.01 122.087C1042.01 122.203 1041.89 122.435 1041.89 122.551L1036.44 128C1036.44 127.884 1036.32 128 1036.09 128ZM1031.45 121.971L1036.09 126.609L1040.73 121.971L1036.09 117.333L1031.45 121.971Z" fill="#E0E0E0"/>
<path d="M437.007 438C436.403 438 436 437.396 436 436.994L436.806 427.937C436.806 427.535 437.208 427.132 437.813 426.931L446.07 426.126L446.876 417.874C446.876 417.472 447.279 417.069 447.883 416.868L456.14 416.063L456.946 407.811C456.946 407.409 457.349 407.006 457.953 406.805L467.016 406C467.62 406 468.023 406.403 468.023 407.006C468.023 407.61 467.62 408.013 467.016 408.013L458.758 408.818L457.953 417.069C457.953 417.472 457.55 417.874 456.946 418.075L448.688 418.881L447.883 427.132C447.883 427.535 447.48 427.937 446.876 428.138L438.618 428.943L437.813 437.195C438.014 437.597 437.611 438 437.007 438Z" fill="#E0E0E0"/>
<path d="M976 85C976 84.4 976.4 84 977 84C977.6 84 978 84.4 978 85L978.8 93.2L987 94C987.4 94 987.8 94.4 988 95L988.8 103.2L997 104C997.4 104 997.8 104.4 998 105L998.8 113.2L1007 114C1007.6 114 1008 114.6 1008 115C1008 115.6 1007.4 116 1007 116L998 115.2C997.6 115.2 997.2 114.8 997 114.2L996.2 106L988 105.2C987.6 105.2 987.2 104.8 987 104.2L986.2 96L978 95.2C977.6 95.2 977.2 94.8 977 94.2L976 85Z" fill="#E0E0E0"/>
<path d="M1789.09 140C1788.98 140 1788.74 139.884 1788.63 139.884L1783.17 134.435C1782.94 134.203 1782.94 133.855 1783.17 133.623L1788.63 128.174C1788.86 127.942 1789.21 127.942 1789.44 128.174L1794.89 133.623C1795.01 133.739 1795.01 133.855 1795.01 134.087C1795.01 134.203 1794.89 134.435 1794.89 134.551L1789.44 140C1789.44 139.884 1789.32 140 1789.09 140ZM1784.45 133.971L1789.09 138.609L1793.73 133.971L1789.09 129.333L1784.45 133.971Z" fill="#E0E0E0"/>
<path d="M558.091 473C557.975 473 557.743 472.884 557.627 472.884L552.174 467.435C551.942 467.203 551.942 466.855 552.174 466.623L557.627 461.174C557.859 460.942 558.207 460.942 558.439 461.174L563.893 466.623C564.009 466.739 564.009 466.855 564.009 467.087C564.009 467.203 563.893 467.435 563.893 467.551L558.439 473C558.439 472.884 558.323 473 558.091 473ZM553.45 466.971L558.091 471.609L562.732 466.971L558.091 462.333L553.45 466.971Z" fill="#E0E0E0"/>
<path d="M1524 287C1524.6 287 1525 287.4 1525 288C1525 288.6 1524.6 289 1524 289L1515.8 289.8L1515 298C1515 298.4 1514.6 298.8 1514 299L1505.8 299.8L1505 308C1505 308.4 1504.6 308.8 1504 309L1495.8 309.8L1495 318C1495 318.6 1494.4 319 1494 319C1493.4 319 1493 318.4 1493 318L1493.8 309C1493.8 308.6 1494.2 308.2 1494.8 308L1503 307.2L1503.8 299C1503.8 298.6 1504.2 298.2 1504.8 298L1513 297.2L1513.8 289C1513.8 288.6 1514.2 288.2 1514.8 288L1524 287Z" fill="#E0E0E0"/>
<path d="M1383.64 496.653C1383.49 496.653 1383.18 496.653 1383.02 496.498L1372.16 485.486C1372 485.331 1372 485.176 1372 484.865C1372 484.555 1372.16 484.4 1372.16 484.245L1383.18 473.233C1383.49 472.922 1383.95 472.922 1384.26 473.233L1395.28 484.245C1395.44 484.4 1395.44 484.555 1395.44 484.865C1395.44 485.176 1395.28 485.331 1395.28 485.486L1384.26 496.498C1384.11 496.498 1383.95 496.653 1383.64 496.653ZM1373.86 484.865L1383.8 494.792L1393.73 484.865L1383.64 474.939L1373.86 484.865Z" fill="#E0E0E0"/>
</svg>
