<svg width="48" height="48" viewBox="0 0 48 48" fill="none" xmlns="http://www.w3.org/2000/svg">
<rect x="20.1865" y="31.7646" width="7.62708" height="1.7" rx="0.85" fill="#78CBFF"/>
<path d="M42.8392 27.9893V38.3387C42.8392 41.1001 40.6006 43.3387 37.8392 43.3387H9.54774C6.78631 43.3387 4.54773 41.1001 4.54773 38.3387V27.9893" stroke="#263066" stroke-width="1.5" stroke-linecap="round"/>
<path d="M42.8392 27.9893V38.3387C42.8392 41.1001 40.6006 43.3387 37.8392 43.3387H9.54774C6.78631 43.3387 4.54773 41.1001 4.54773 38.3387V27.9893" stroke="black" stroke-opacity="0.2" stroke-width="1.5" stroke-linecap="round"/>
<path d="M4.30518 17.5176C4.30518 15.1704 6.20797 13.2676 8.55518 13.2676H38.8318C41.179 13.2676 43.0818 15.1704 43.0818 17.5176V23.4946C30.7271 28.9244 16.6599 28.9244 4.30518 23.4946V17.5176Z" stroke="#263066" stroke-width="1.5"/>
<path d="M4.30518 17.5176C4.30518 15.1704 6.20797 13.2676 8.55518 13.2676H38.8318C41.179 13.2676 43.0818 15.1704 43.0818 17.5176V23.4946C30.7271 28.9244 16.6599 28.9244 4.30518 23.4946V17.5176Z" stroke="black" stroke-opacity="0.2" stroke-width="1.5"/>
<path d="M29.9379 9.80016C29.9379 10.2144 30.2737 10.5502 30.6879 10.5502C31.1021 10.5502 31.4379 10.2144 31.4379 9.80016H29.9379ZM15.9493 9.80016C15.9493 10.2144 16.2851 10.5502 16.6993 10.5502C17.1135 10.5502 17.4493 10.2144 17.4493 9.80016H15.9493ZM21.6993 5.41113H25.6879V3.91113H21.6993V5.41113ZM29.9379 9.66113V9.80016H31.4379V9.66113H29.9379ZM17.4493 9.80016V9.66113H15.9493V9.80016H17.4493ZM25.6879 5.41113C28.0351 5.41113 29.9379 7.31392 29.9379 9.66113H31.4379C31.4379 6.4855 28.8635 3.91113 25.6879 3.91113V5.41113ZM21.6993 3.91113C18.5236 3.91113 15.9493 6.4855 15.9493 9.66113H17.4493C17.4493 7.31392 19.3521 5.41113 21.6993 5.41113V3.91113Z" fill="#263066"/>
<path d="M29.9379 9.80016C29.9379 10.2144 30.2737 10.5502 30.6879 10.5502C31.1021 10.5502 31.4379 10.2144 31.4379 9.80016H29.9379ZM15.9493 9.80016C15.9493 10.2144 16.2851 10.5502 16.6993 10.5502C17.1135 10.5502 17.4493 10.2144 17.4493 9.80016H15.9493ZM21.6993 5.41113H25.6879V3.91113H21.6993V5.41113ZM29.9379 9.66113V9.80016H31.4379V9.66113H29.9379ZM17.4493 9.80016V9.66113H15.9493V9.80016H17.4493ZM25.6879 5.41113C28.0351 5.41113 29.9379 7.31392 29.9379 9.66113H31.4379C31.4379 6.4855 28.8635 3.91113 25.6879 3.91113V5.41113ZM21.6993 3.91113C18.5236 3.91113 15.9493 6.4855 15.9493 9.66113H17.4493C17.4493 7.31392 19.3521 5.41113 21.6993 5.41113V3.91113Z" fill="black" fill-opacity="0.2"/>
</svg>
