<svg width="48" height="48" viewBox="0 0 48 48" fill="none" xmlns="http://www.w3.org/2000/svg">
<path d="M23.9886 39.1591L25.3331 38.4868C25.7654 38.2707 26.2903 38.3946 26.5803 38.7813L26.6769 38.9101C27.1229 39.5048 28.0389 39.4222 28.3713 38.7573L29.015 37.4699C29.3475 36.805 30.2634 36.7224 30.7095 37.3171L32.3743 39.5369C32.6642 39.9235 33.1892 40.0474 33.6215 39.8313L34.9659 39.1591" stroke="#78CBFF" stroke-width="1.5" stroke-linecap="round"/>
<path d="M18.7613 9.88623H28.6931" stroke="#D3D3D3" stroke-width="1.5" stroke-linecap="round"/>
<path d="M14.5796 21.9092H32.8751" stroke="#D3D3D3" stroke-width="1.5" stroke-linecap="round"/>
<path d="M14.5796 28.1819H26.0796" stroke="#D3D3D3" stroke-width="1.5" stroke-linecap="round"/>
<path d="M31.8296 28.1819H33.3978" stroke="#D3D3D3" stroke-width="1.5" stroke-linecap="round"/>
<path d="M19.284 38.6362H20.8522" stroke="#78CBFF" stroke-width="1.5" stroke-linecap="round"/>
<path d="M40.9432 14.5909C40.9432 14.1767 40.6074 13.8409 40.1932 13.8409C39.779 13.8409 39.4432 14.1767 39.4432 14.5909H40.9432ZM11.7386 1.75H35.1932V0.25H11.7386V1.75ZM35.1932 46.25H11.7386V47.75H35.1932V46.25ZM7.48865 42V6H5.98865V42H7.48865ZM39.4432 6V9.40909H40.9432V6H39.4432ZM39.4432 14.5909V42H40.9432V14.5909H39.4432ZM31.6023 1.52273V4.40909H33.1023V1.52273H31.6023ZM37.3523 10.1591H40.1932V8.65909H37.3523V10.1591ZM40.1932 10.1591H41.0338V8.65909H40.1932V10.1591ZM11.7386 46.25C9.39144 46.25 7.48865 44.3472 7.48865 42H5.98865C5.98865 45.1756 8.56301 47.75 11.7386 47.75V46.25ZM31.6023 4.40909C31.6023 7.58473 34.1766 10.1591 37.3523 10.1591V8.65909C35.0051 8.65909 33.1023 6.7563 33.1023 4.40909H31.6023ZM35.1932 47.75C38.3688 47.75 40.9432 45.1756 40.9432 42H39.4432C39.4432 44.3472 37.5404 46.25 35.1932 46.25V47.75ZM35.1932 1.75C37.5404 1.75 39.4432 3.65279 39.4432 6H40.9432C40.9432 2.82436 38.3688 0.25 35.1932 0.25V1.75ZM11.7386 0.25C8.56301 0.25 5.98865 2.82436 5.98865 6H7.48865C7.48865 3.65279 9.39144 1.75 11.7386 1.75V0.25Z" fill="#263066"/>
<path d="M40.9432 14.5909C40.9432 14.1767 40.6074 13.8409 40.1932 13.8409C39.779 13.8409 39.4432 14.1767 39.4432 14.5909H40.9432ZM11.7386 1.75H35.1932V0.25H11.7386V1.75ZM35.1932 46.25H11.7386V47.75H35.1932V46.25ZM7.48865 42V6H5.98865V42H7.48865ZM39.4432 6V9.40909H40.9432V6H39.4432ZM39.4432 14.5909V42H40.9432V14.5909H39.4432ZM31.6023 1.52273V4.40909H33.1023V1.52273H31.6023ZM37.3523 10.1591H40.1932V8.65909H37.3523V10.1591ZM40.1932 10.1591H41.0338V8.65909H40.1932V10.1591ZM11.7386 46.25C9.39144 46.25 7.48865 44.3472 7.48865 42H5.98865C5.98865 45.1756 8.56301 47.75 11.7386 47.75V46.25ZM31.6023 4.40909C31.6023 7.58473 34.1766 10.1591 37.3523 10.1591V8.65909C35.0051 8.65909 33.1023 6.7563 33.1023 4.40909H31.6023ZM35.1932 47.75C38.3688 47.75 40.9432 45.1756 40.9432 42H39.4432C39.4432 44.3472 37.5404 46.25 35.1932 46.25V47.75ZM35.1932 1.75C37.5404 1.75 39.4432 3.65279 39.4432 6H40.9432C40.9432 2.82436 38.3688 0.25 35.1932 0.25V1.75ZM11.7386 0.25C8.56301 0.25 5.98865 2.82436 5.98865 6H7.48865C7.48865 3.65279 9.39144 1.75 11.7386 1.75V0.25Z" fill="black" fill-opacity="0.2"/>
</svg>
