<svg width="20" height="20" viewBox="0 0 20 20" fill="none" xmlns="http://www.w3.org/2000/svg">
<path d="M15.8332 3.33301H4.1665C3.50346 3.33301 2.86758 3.5964 2.39874 4.06524C1.9299 4.53408 1.6665 5.16997 1.6665 5.83301V14.1663C1.6665 14.8294 1.9299 15.4653 2.39874 15.9341C2.86758 16.4029 3.50346 16.6663 4.1665 16.6663H15.8332C16.4962 16.6663 17.1321 16.4029 17.6009 15.9341C18.0698 15.4653 18.3332 14.8294 18.3332 14.1663V5.83301C18.3332 5.16997 18.0698 4.53408 17.6009 4.06524C17.1321 3.5964 16.4962 3.33301 15.8332 3.33301ZM15.4915 4.99967L10.5915 9.89967C10.514 9.97778 10.4219 10.0398 10.3203 10.0821C10.2188 10.1244 10.1098 10.1462 9.99984 10.1462C9.88983 10.1462 9.78091 10.1244 9.67936 10.0821C9.57781 10.0398 9.48564 9.97778 9.40817 9.89967L4.50817 4.99967H15.4915ZM16.6665 14.1663C16.6665 14.3874 16.5787 14.5993 16.4224 14.7556C16.2661 14.9119 16.0542 14.9997 15.8332 14.9997H4.1665C3.94549 14.9997 3.73353 14.9119 3.57725 14.7556C3.42097 14.5993 3.33317 14.3874 3.33317 14.1663V6.17467L8.23317 11.0747C8.70192 11.5428 9.33734 11.8058 9.99984 11.8058C10.6623 11.8058 11.2978 11.5428 11.7665 11.0747L16.6665 6.17467V14.1663Z" fill="#78CBFF"/>
</svg>
