<svg width="20" height="20" viewBox="0 0 20 20" fill="none" xmlns="http://www.w3.org/2000/svg">
<path d="M15.8333 3.33334H4.16667C3.50363 3.33334 2.86775 3.59674 2.39891 4.06558C1.93006 4.53442 1.66667 5.1703 1.66667 5.83334V14.1667C1.66667 14.8297 1.93006 15.4656 2.39891 15.9344C2.86775 16.4033 3.50363 16.6667 4.16667 16.6667H15.8333C16.4964 16.6667 17.1323 16.4033 17.6011 15.9344C18.07 15.4656 18.3333 14.8297 18.3333 14.1667V5.83334C18.3333 5.1703 18.07 4.53442 17.6011 4.06558C17.1323 3.59674 16.4964 3.33334 15.8333 3.33334ZM15.4917 5.00001L10.5917 9.90001C10.5142 9.97812 10.422 10.0401 10.3205 10.0824C10.2189 10.1247 10.11 10.1465 10 10.1465C9.89 10.1465 9.78108 10.1247 9.67953 10.0824C9.57798 10.0401 9.48581 9.97812 9.40834 9.90001L4.50834 5.00001H15.4917ZM16.6667 14.1667C16.6667 14.3877 16.5789 14.5997 16.4226 14.7559C16.2663 14.9122 16.0544 15 15.8333 15H4.16667C3.94566 15 3.7337 14.9122 3.57742 14.7559C3.42114 14.5997 3.33334 14.3877 3.33334 14.1667V6.17501L8.23334 11.075C8.70209 11.5432 9.3375 11.8061 10 11.8061C10.6625 11.8061 11.2979 11.5432 11.7667 11.075L16.6667 6.17501V14.1667Z" fill="white"/>
</svg>
