<svg width="48" height="48" viewBox="0 0 48 48" fill="none" xmlns="http://www.w3.org/2000/svg">
<path d="M2.9238 42.5497H5.4935C6.04578 42.5497 6.4935 42.102 6.4935 41.5497V30.2717C6.4935 30.0065 6.59863 29.7532 6.77906 29.5588C7.89982 28.3513 9.719 26.1382 12.9218 26.1382C16.6551 26.1382 19.2692 27.1944 23.4326 29.4104C27.3165 31.4777 29.6084 32.8249 28.9367 34.907C28.186 37.2343 25.8695 36.7092 24.3695 36.0824L18.5933 33.4293M9.60239 39.8385C10.0459 40.1712 17.0311 44.7171 21.3552 44.7171C24.8145 44.7171 34.8451 40.0603 39.428 37.7319C43.275 35.7773 45.8587 34.907 44.8609 32.299C44.4366 31.1902 43.2919 29.8575 40.0932 31.1902C37.4322 32.299 31.9349 34.9136 28.9367 36.0824" stroke="#263066" stroke-width="1.5" stroke-linecap="round"/>
<path d="M2.9238 42.5497H5.4935C6.04578 42.5497 6.4935 42.102 6.4935 41.5497V30.2717C6.4935 30.0065 6.59863 29.7532 6.77906 29.5588C7.89982 28.3513 9.719 26.1382 12.9218 26.1382C16.6551 26.1382 19.2692 27.1944 23.4326 29.4104C27.3165 31.4777 29.6084 32.8249 28.9367 34.907C28.186 37.2343 25.8695 36.7092 24.3695 36.0824L18.5933 33.4293M9.60239 39.8385C10.0459 40.1712 17.0311 44.7171 21.3552 44.7171C24.8145 44.7171 34.8451 40.0603 39.428 37.7319C43.275 35.7773 45.8587 34.907 44.8609 32.299C44.4366 31.1902 43.2919 29.8575 40.0932 31.1902C37.4322 32.299 31.9349 34.9136 28.9367 36.0824" stroke="black" stroke-opacity="0.2" stroke-width="1.5" stroke-linecap="round"/>
<circle cx="29.2507" cy="13.7442" r="9.71112" stroke="#263066" stroke-width="1.5"/>
<circle cx="29.2507" cy="13.7442" r="9.71112" stroke="black" stroke-opacity="0.2" stroke-width="1.5"/>
<path d="M32.9133 13.7442C32.9133 16.5577 32.4308 19.0694 31.6798 20.8498C31.3037 21.7415 30.8749 22.4147 30.4372 22.8536C30.0023 23.2897 29.602 23.4553 29.2506 23.4553C28.8993 23.4553 28.4989 23.2897 28.0641 22.8536C27.6263 22.4147 27.1976 21.7415 26.8214 20.8498C26.0704 19.0694 25.588 16.5577 25.588 13.7442C25.588 10.9307 26.0704 8.41898 26.8214 6.63856C27.1976 5.74685 27.6263 5.07374 28.0641 4.63478C28.4989 4.19871 28.8993 4.03308 29.2506 4.03308C29.602 4.03308 30.0023 4.19871 30.4372 4.63478C30.8749 5.07374 31.3037 5.74685 31.6798 6.63856C32.4308 8.41898 32.9133 10.9307 32.9133 13.7442Z" stroke="#263066" stroke-width="1.5"/>
<path d="M32.9133 13.7442C32.9133 16.5577 32.4308 19.0694 31.6798 20.8498C31.3037 21.7415 30.8749 22.4147 30.4372 22.8536C30.0023 23.2897 29.602 23.4553 29.2506 23.4553C28.8993 23.4553 28.4989 23.2897 28.0641 22.8536C27.6263 22.4147 27.1976 21.7415 26.8214 20.8498C26.0704 19.0694 25.588 16.5577 25.588 13.7442C25.588 10.9307 26.0704 8.41898 26.8214 6.63856C27.1976 5.74685 27.6263 5.07374 28.0641 4.63478C28.4989 4.19871 28.8993 4.03308 29.2506 4.03308C29.602 4.03308 30.0023 4.19871 30.4372 4.63478C30.8749 5.07374 31.3037 5.74685 31.6798 6.63856C32.4308 8.41898 32.9133 10.9307 32.9133 13.7442Z" stroke="black" stroke-opacity="0.2" stroke-width="1.5"/>
<path d="M19.88 13.7939H38.6209" stroke="#263066" stroke-width="1.5" stroke-linecap="round"/>
<path d="M19.88 13.7939H38.6209" stroke="black" stroke-opacity="0.2" stroke-width="1.5" stroke-linecap="round"/>
<path d="M9.76601 22.3215C8.84045 19.1154 7.82229 11.1959 11.154 5.16711" stroke="#78CBFF" stroke-width="1.5" stroke-linecap="round"/>
<path d="M31.6113 31.5229L34.9928 29.9151C36.0277 29.4901 38.3081 29.0724 39.1507 30.8021" stroke="#263066" stroke-width="1.5" stroke-linecap="round"/>
<path d="M31.6113 31.5229L34.9928 29.9151C36.0277 29.4901 38.3081 29.0724 39.1507 30.8021" stroke="black" stroke-opacity="0.2" stroke-width="1.5" stroke-linecap="round"/>
<path d="M13.4703 9.49607L11.7715 5.55612C11.535 5.00764 10.8736 4.78744 10.3555 5.08471L6.18866 7.47572" stroke="#78CBFF" stroke-width="1.5" stroke-linecap="round"/>
</svg>
