<svg width="48" height="48" viewBox="0 0 48 48" fill="none" xmlns="http://www.w3.org/2000/svg">
<path d="M21.6094 8.88635L30.6054 8.88635" stroke="#D3D3D3" stroke-width="1.5" stroke-linecap="round"/>
<path d="M21.6094 20.9092H34.4227" stroke="#D3D3D3" stroke-width="1.5" stroke-linecap="round"/>
<path d="M21.6094 25.0576H34.4227" stroke="#D3D3D3" stroke-width="1.5" stroke-linecap="round"/>
<path d="M21.6094 29.0675H27.8151" stroke="#D3D3D3" stroke-width="1.5" stroke-linecap="round"/>
<path d="M32.8545 29.0675H34.4227" stroke="#D3D3D3" stroke-width="1.5" stroke-linecap="round"/>
<circle cx="11.4138" cy="12.8782" r="3.32812" stroke="#78CBFF" stroke-width="1.5"/>
<path d="M3.42435 42.5059C3.42429 41.8401 3.42432 38.2338 3.42435 36.5138" stroke="#78CBFF" stroke-width="1.5" stroke-linecap="round"/>
<path d="M3.42432 33.3512L3.92357 25.3617C4.42292 21.8663 5.33838 20.1186 8.16799 19.6193" stroke="#78CBFF" stroke-width="1.5" stroke-linecap="round"/>
<path d="M18.4878 33.3512L17.9885 25.3617C17.4892 21.8663 16.5737 20.1186 13.7441 19.6193" stroke="#78CBFF" stroke-width="1.5" stroke-linecap="round"/>
<path d="M7.16947 34.5148L7.16945 46.003C7.16946 46.5552 7.61706 47 8.16926 47H14.5749C15.1272 47 15.5749 46.5523 15.5749 46V34.5177C15.5749 33.9654 15.1272 33.5177 14.5749 33.5177H8.16947C7.61719 33.5177 7.16948 33.9625 7.16947 34.5148Z" stroke="#78CBFF" stroke-width="1.5" stroke-linecap="round"/>
<path d="M11.1641 37.1796V46.5586" stroke="#78CBFF" stroke-width="1.5" stroke-linecap="round"/>
<path d="M3.42433 47H28.478" stroke="#263066" stroke-width="1.5" stroke-linecap="round"/>
<path d="M3.42433 47H28.478" stroke="black" stroke-opacity="0.2" stroke-width="1.5" stroke-linecap="round"/>
<path d="M40.9432 14.5909C40.9432 14.1767 40.6074 13.8409 40.1932 13.8409C39.779 13.8409 39.4432 14.1767 39.4432 14.5909H40.9432ZM11.6167 0.25C11.2025 0.25 10.8667 0.585786 10.8667 1C10.8667 1.41421 11.2025 1.75 11.6167 1.75V0.25ZM35.0988 46.25C34.6846 46.25 34.3488 46.5858 34.3488 47C34.3488 47.4142 34.6846 47.75 35.0988 47.75V46.25ZM39.4432 6V9.40909H40.9432V6H39.4432ZM39.4432 14.5909V42H40.9432V14.5909H39.4432ZM31.6023 1.52273V4.40909H33.1023V1.52273H31.6023ZM37.3523 10.1591H40.1932V8.65909H37.3523V10.1591ZM40.1932 10.1591H41.0393V8.65909H40.1932V10.1591ZM23.414 1.75H35.1932V0.25H23.414V1.75ZM11.6167 1.75H23.414V0.25H11.6167V1.75ZM35.1932 46.25H35.0988V47.75H35.1932V46.25ZM39.4432 42C39.4432 44.3472 37.5404 46.25 35.1932 46.25V47.75C38.3688 47.75 40.9432 45.1756 40.9432 42H39.4432ZM31.6023 4.40909C31.6023 7.58473 34.1767 10.1591 37.3523 10.1591V8.65909C35.0051 8.65909 33.1023 6.7563 33.1023 4.40909H31.6023ZM40.9432 6C40.9432 2.82436 38.3688 0.25 35.1932 0.25V1.75C37.5404 1.75 39.4432 3.65279 39.4432 6H40.9432Z" fill="#263066"/>
<path d="M40.9432 14.5909C40.9432 14.1767 40.6074 13.8409 40.1932 13.8409C39.779 13.8409 39.4432 14.1767 39.4432 14.5909H40.9432ZM11.6167 0.25C11.2025 0.25 10.8667 0.585786 10.8667 1C10.8667 1.41421 11.2025 1.75 11.6167 1.75V0.25ZM35.0988 46.25C34.6846 46.25 34.3488 46.5858 34.3488 47C34.3488 47.4142 34.6846 47.75 35.0988 47.75V46.25ZM39.4432 6V9.40909H40.9432V6H39.4432ZM39.4432 14.5909V42H40.9432V14.5909H39.4432ZM31.6023 1.52273V4.40909H33.1023V1.52273H31.6023ZM37.3523 10.1591H40.1932V8.65909H37.3523V10.1591ZM40.1932 10.1591H41.0393V8.65909H40.1932V10.1591ZM23.414 1.75H35.1932V0.25H23.414V1.75ZM11.6167 1.75H23.414V0.25H11.6167V1.75ZM35.1932 46.25H35.0988V47.75H35.1932V46.25ZM39.4432 42C39.4432 44.3472 37.5404 46.25 35.1932 46.25V47.75C38.3688 47.75 40.9432 45.1756 40.9432 42H39.4432ZM31.6023 4.40909C31.6023 7.58473 34.1767 10.1591 37.3523 10.1591V8.65909C35.0051 8.65909 33.1023 6.7563 33.1023 4.40909H31.6023ZM40.9432 6C40.9432 2.82436 38.3688 0.25 35.1932 0.25V1.75C37.5404 1.75 39.4432 3.65279 39.4432 6H40.9432Z" fill="black" fill-opacity="0.2"/>
</svg>
