<svg width="100" height="24" viewBox="0 0 100 24" fill="none" xmlns="http://www.w3.org/2000/svg">
<g clip-path="url(#clip0_622_8000)">
<path d="M6.54545 17.4545V19.9234H0V17.4545H2.00957V8.26794H0V5.97129H4.53588V17.4545H6.54545ZM3.04306 0C3.48011 0.014341 3.89535 0.194371 4.20456 0.503579C4.51376 0.812786 4.69379 1.22802 4.70813 1.66507C4.71283 1.88502 4.67297 2.10364 4.59096 2.30778C4.50894 2.51192 4.38647 2.69736 4.23091 2.85292C4.07535 3.00848 3.88991 3.13095 3.68577 3.21297C3.48163 3.29498 3.26301 3.33484 3.04306 3.33014C2.8218 3.33992 2.60092 3.30354 2.39448 3.22332C2.18804 3.1431 2.00055 3.0208 1.84394 2.86419C1.68733 2.70758 1.56503 2.52009 1.48481 2.31365C1.40459 2.10721 1.36821 1.88634 1.37799 1.66507C1.37799 1.22347 1.55342 0.79995 1.86568 0.487688C2.17794 0.175427 2.60146 0 3.04306 0V0ZM12.8612 17.8565C13.384 17.8448 13.8961 17.7069 14.3541 17.4545V19.9234C13.6423 20.2131 12.8832 20.3688 12.1148 20.3828C9.5311 20.3828 9.1866 19.0048 9.1866 16.5359V8.26794H7.34928V5.97129H9.1866V4.07656L11.7129 2.00957V5.97129H14.3541V8.26794H11.7129V16.0766C11.7129 17.3397 11.9426 17.8565 12.8612 17.8565Z" fill="#88C8EF"/>
<path d="M22.9091 17.7417C23.8042 17.7462 24.6855 17.5218 25.4694 17.0897C26.2533 16.6575 26.9136 16.0321 27.3876 15.2728L29.6268 16.4211C28.9821 17.6332 28.0115 18.6411 26.8246 19.331C25.6376 20.0208 24.2814 20.3653 22.9091 20.3254C18.5455 20.3254 15.7321 17.4546 15.7321 12.9187C15.7321 8.38283 18.6603 5.51202 22.7368 5.51202C26.9856 5.51202 29.5694 8.44025 29.5694 13.6077H18.5455C18.6029 16.134 20.3254 17.7417 22.9091 17.7417ZM26.6986 11.5981C26.4115 9.18666 24.9761 7.9235 22.6794 7.9235C20.3828 7.9235 18.89 9.24407 18.7177 11.5981H26.6986ZM31.6364 15.2154H33.8756C34.1053 17.0527 35.4833 18.1436 37.5502 18.1436C39.2727 18.1436 40.3062 17.2824 40.3062 16.2489C40.3062 15.2154 39.445 14.6986 37.7225 14.2967L35.5981 13.78C32.8995 13.1484 31.6364 11.9426 31.6364 9.76082C31.6364 7.46417 33.7033 5.56943 36.5167 5.56943C37.8887 5.54926 39.2191 6.04048 40.2488 6.94742V5.91393H42.4306V10.5072H40.2488C40.0766 8.84216 38.6986 7.69383 36.6316 7.69383C35.1388 7.69383 34.2201 8.44025 34.2201 9.53116C34.2201 10.6221 35.0239 11.024 36.5167 11.3111L38.9282 11.8278C41.5694 12.402 42.89 13.6651 42.89 15.8469C42.89 18.5455 40.8804 20.3828 37.7225 20.3828C36.3288 20.4297 34.971 19.936 33.933 19.0048V19.9809H31.6938V15.2154H31.6364ZM51.9617 8.03833C49.3206 8.03833 47.5981 9.87565 47.5981 12.9187C47.5981 15.9618 49.3206 17.7417 51.9043 17.7417C52.8304 17.7322 53.7353 17.4636 54.5166 16.9664C55.298 16.4692 55.9245 15.7632 56.3254 14.9283L58.5646 16.0192C58.019 17.3255 57.0908 18.4361 55.9019 19.2047C54.7131 19.9733 53.3194 20.364 51.9043 20.3254C47.7129 20.3254 44.7847 17.4546 44.7847 12.9761C44.7847 8.61249 47.7129 5.56943 51.5598 5.56943C53.0933 5.55348 54.574 6.12928 55.6938 7.17709V5.91393H57.933V11.1388H55.6938C55.177 9.07182 53.8565 8.03833 51.9617 8.03833ZM67.1196 20.3254C62.9857 20.3254 60.1148 17.4546 60.1148 12.9187C60.1148 8.38283 63.0431 5.51202 67.1196 5.51202C71.1962 5.51202 74.1818 8.44025 74.1818 12.9187C74.1818 17.3972 71.2536 20.3254 67.1196 20.3254ZM71.3684 12.9187C71.3684 9.87565 69.7608 8.09575 67.1196 8.09575C64.4785 8.09575 62.8708 9.87565 62.8708 12.9187C62.8708 15.9618 64.5933 17.7417 67.1196 17.7417C69.6459 17.7417 71.3684 16.0192 71.3684 12.9187Z" fill="#263066"/>
<path d="M77.6268 8.26801H75.6172V5.97136H80.0383V8.72734C81.0143 6.54552 82.3349 5.74169 84.5167 5.74169H85.5502V8.44026C85.2057 8.44026 84.8612 8.38284 84.5167 8.38284C81.3588 8.38284 80.1531 10.2202 80.1531 13.78V17.4546H82.6794V19.9235H75.6746V17.4546H77.6842L77.6268 8.26801Z" fill="#263066"/>
<path d="M92.4976 17.8564C93.0203 17.8447 93.5325 17.7068 93.9904 17.4545V19.9234C93.2969 20.2071 92.5577 20.3627 91.8086 20.3827C89.2249 20.3827 88.8804 19.0048 88.8804 16.5359V8.26791H87.0431V5.97126H88.8804V4.07652L91.4067 2.00954V5.97126H93.9904V8.26791H91.4067V16.0765C91.3493 17.3397 91.5789 17.8564 92.4976 17.8564ZM96.5742 5.91384H99.9043V9.41624H96.5742V5.91384ZM96.689 16.421H99.9617V19.9808C99.9617 22.5071 98.8708 23.8277 96.6316 24V22.3923C97.8373 22.1052 98.2392 21.6459 98.2392 20.3827V19.9234H96.7464L96.689 16.421Z" fill="#263066"/>
</g>
<defs>
<clipPath id="clip0_622_8000">
<rect width="99.9617" height="24" fill="white"/>
</clipPath>
</defs>
</svg>
