<svg width="48" height="48" viewBox="0 0 48 48" fill="none" xmlns="http://www.w3.org/2000/svg">
<circle cx="24" cy="24" r="24" fill="#78CBFF"/>
<path d="M23.208 32.5521V35.4592H15V32.5521H17.52V21.7352H15V19.031H20.688V32.5521H23.208ZM18.816 12C19.3641 12.0169 19.8848 12.2289 20.2725 12.5929C20.6603 12.957 20.886 13.446 20.904 13.9606C20.9099 14.2195 20.8599 14.477 20.7571 14.7173C20.6542 14.9577 20.5006 15.176 20.3056 15.3592C20.1105 15.5424 19.878 15.6866 19.622 15.7832C19.366 15.8797 19.0918 15.9267 18.816 15.9211C18.5385 15.9326 18.2616 15.8898 18.0027 15.7953C17.7438 15.7009 17.5087 15.5569 17.3123 15.3725C17.1159 15.1881 16.9625 14.9673 16.862 14.7242C16.7614 14.4812 16.7157 14.2211 16.728 13.9606C16.728 13.4406 16.948 12.9419 17.3396 12.5742C17.7311 12.2066 18.2622 12 18.816 12V12ZM31.128 33.0254C31.7835 33.0116 32.4257 32.8492 33 32.5521V35.4592C32.1074 35.8002 31.1555 35.9836 30.192 36C26.952 36 26.52 34.3775 26.52 31.4704V21.7352H24.216V19.031H26.52V16.8L29.688 14.3662V19.031H33V21.7352H29.688V30.9296C29.688 32.4169 29.976 33.0254 31.128 33.0254Z" fill="white"/>
</svg>
