<svg width="48" height="48" viewBox="0 0 48 48" fill="none" xmlns="http://www.w3.org/2000/svg">
<path d="M3.81366 2.69434C3.39945 2.69434 3.06366 3.03012 3.06366 3.44434C3.06366 3.85855 3.39945 4.19434 3.81366 4.19434V2.69434ZM12.505 3.44434L13.2316 3.25842L13.0873 2.69434H12.505V3.44434ZM17.8764 27.4614C17.9791 27.8627 18.3876 28.1048 18.7889 28.0021C19.1902 27.8994 19.4322 27.4909 19.3296 27.0896L17.8764 27.4614ZM3.81366 4.19434H12.505V2.69434H3.81366V4.19434ZM11.7784 3.63026L17.8764 27.4614L19.3296 27.0896L13.2316 3.25842L11.7784 3.63026Z" fill="#263066"/>
<path d="M3.81366 2.69434C3.39945 2.69434 3.06366 3.03012 3.06366 3.44434C3.06366 3.85855 3.39945 4.19434 3.81366 4.19434V2.69434ZM12.505 3.44434L13.2316 3.25842L13.0873 2.69434H12.505V3.44434ZM17.8764 27.4614C17.9791 27.8627 18.3876 28.1048 18.7889 28.0021C19.1902 27.8994 19.4322 27.4909 19.3296 27.0896L17.8764 27.4614ZM3.81366 4.19434H12.505V2.69434H3.81366V4.19434ZM11.7784 3.63026L17.8764 27.4614L19.3296 27.0896L13.2316 3.25842L11.7784 3.63026Z" fill="black" fill-opacity="0.2"/>
<path d="M14.047 8.44189C13.6328 8.44189 13.297 8.77767 13.297 9.19188C13.297 9.6061 13.6328 9.94189 14.047 9.94189L14.047 8.44189ZM40.4014 27.4157V28.1657H41.0117L41.1358 27.5682L40.4014 27.4157ZM18.4628 33.5983V32.8483V33.5983ZM42.8531 34.3483C43.2673 34.3483 43.6031 34.0125 43.6031 33.5983C43.6031 33.1841 43.2673 32.8483 42.8531 32.8483V34.3483ZM41.7339 9.1919V9.9419V9.1919ZM14.047 9.94189C14.8736 9.94191 31.5505 9.9419 41.7339 9.9419L41.7339 8.4419C31.5504 8.4419 14.8736 8.44191 14.047 8.44189L14.047 9.94189ZM42.9522 11.4461L39.6671 27.2632L41.1358 27.5682L44.4208 11.7511L42.9522 11.4461ZM40.4014 26.6657H18.4628V28.1657H40.4014V26.6657ZM18.4628 26.6657C17.7065 26.6657 16.6438 26.7795 15.7489 27.3434C14.7955 27.9441 14.1381 28.9889 14.1381 30.5958H15.6381C15.6381 29.4618 16.0657 28.9166 16.5485 28.6125C17.0897 28.2715 17.8143 28.1657 18.4628 28.1657V26.6657ZM14.1381 30.5958C14.1381 32.138 14.8015 33.1382 15.7508 33.7075C16.6383 34.2398 17.6953 34.3483 18.4628 34.3483V32.8483C17.7932 32.8483 17.0628 32.7453 16.5222 32.4211C16.0435 32.134 15.6381 31.633 15.6381 30.5958H14.1381ZM18.4628 34.3483H42.8531V32.8483H18.4628V34.3483ZM41.7339 9.9419C42.5235 9.9419 43.1139 10.6671 42.9522 11.4461L44.4208 11.7511C44.7748 10.0468 43.4805 8.4419 41.7339 8.4419L41.7339 9.9419Z" fill="#263066"/>
<path d="M14.047 8.44189C13.6328 8.44189 13.297 8.77767 13.297 9.19188C13.297 9.6061 13.6328 9.94189 14.047 9.94189L14.047 8.44189ZM40.4014 27.4157V28.1657H41.0117L41.1358 27.5682L40.4014 27.4157ZM18.4628 33.5983V32.8483V33.5983ZM42.8531 34.3483C43.2673 34.3483 43.6031 34.0125 43.6031 33.5983C43.6031 33.1841 43.2673 32.8483 42.8531 32.8483V34.3483ZM41.7339 9.1919V9.9419V9.1919ZM14.047 9.94189C14.8736 9.94191 31.5505 9.9419 41.7339 9.9419L41.7339 8.4419C31.5504 8.4419 14.8736 8.44191 14.047 8.44189L14.047 9.94189ZM42.9522 11.4461L39.6671 27.2632L41.1358 27.5682L44.4208 11.7511L42.9522 11.4461ZM40.4014 26.6657H18.4628V28.1657H40.4014V26.6657ZM18.4628 26.6657C17.7065 26.6657 16.6438 26.7795 15.7489 27.3434C14.7955 27.9441 14.1381 28.9889 14.1381 30.5958H15.6381C15.6381 29.4618 16.0657 28.9166 16.5485 28.6125C17.0897 28.2715 17.8143 28.1657 18.4628 28.1657V26.6657ZM14.1381 30.5958C14.1381 32.138 14.8015 33.1382 15.7508 33.7075C16.6383 34.2398 17.6953 34.3483 18.4628 34.3483V32.8483C17.7932 32.8483 17.0628 32.7453 16.5222 32.4211C16.0435 32.134 15.6381 31.633 15.6381 30.5958H14.1381ZM18.4628 34.3483H42.8531V32.8483H18.4628V34.3483ZM41.7339 9.9419C42.5235 9.9419 43.1139 10.6671 42.9522 11.4461L44.4208 11.7511C44.7748 10.0468 43.4805 8.4419 41.7339 8.4419L41.7339 9.9419Z" fill="black" fill-opacity="0.2"/>
<path d="M29.8755 12.7261C29.8755 12.3119 29.5397 11.9761 29.1255 11.9761C28.7113 11.9761 28.3755 12.3118 28.3755 12.7261L29.8755 12.7261ZM28.3755 23.9031C28.3755 24.3173 28.7113 24.6531 29.1255 24.6531C29.5397 24.6531 29.8755 24.3173 29.8755 23.9031L28.3755 23.9031ZM28.3755 12.7261C28.3755 13.2484 28.3755 20.3951 28.3755 23.9031L29.8755 23.9031C29.8755 20.395 29.8755 13.2484 29.8755 12.7261L28.3755 12.7261Z" fill="#78CBFF"/>
<path d="M34.9071 14.9541C34.9071 14.5399 34.5713 14.2041 34.1571 14.2041C33.7429 14.2041 33.4071 14.5399 33.4071 14.9541L34.9071 14.9541ZM33.4071 21.6757C33.4071 22.0899 33.7429 22.4257 34.1571 22.4257C34.5713 22.4257 34.9071 22.0899 34.9071 21.6757L33.4071 21.6757ZM33.4071 14.9541C33.4071 15.2682 33.4071 19.5661 33.4071 21.6757L34.9071 21.6757C34.9071 19.566 34.9071 15.2682 34.9071 14.9541L33.4071 14.9541Z" fill="#78CBFF"/>
<path d="M24.8263 14.9541C24.8263 14.5399 24.4905 14.2041 24.0763 14.2041C23.6621 14.2041 23.3263 14.5399 23.3263 14.9541L24.8263 14.9541ZM23.3263 21.6757C23.3263 22.0899 23.6621 22.4257 24.0763 22.4257C24.4905 22.4257 24.8263 22.0899 24.8263 21.6757L23.3263 21.6757ZM23.3263 14.9541C23.3263 15.2682 23.3263 19.5661 23.3263 21.6757L24.8263 21.6757C24.8263 19.566 24.8263 15.2682 24.8263 14.9541L23.3263 14.9541Z" fill="#78CBFF"/>
<circle cx="21.6493" cy="40.5864" r="3.21967" stroke="#263066" stroke-width="1.5"/>
<circle cx="21.6493" cy="40.5864" r="3.21967" stroke="black" stroke-opacity="0.2" stroke-width="1.5"/>
<circle cx="37.6477" cy="40.5864" r="3.21967" stroke="#263066" stroke-width="1.5"/>
<circle cx="37.6477" cy="40.5864" r="3.21967" stroke="black" stroke-opacity="0.2" stroke-width="1.5"/>
</svg>
