<svg width="48" height="48" viewBox="0 0 48 48" fill="none" xmlns="http://www.w3.org/2000/svg">
<path d="M15.5074 31.3548L13.2737 29.1211C15.4024 22.9606 19.7413 11.3734 25.696 6.31605C31.6508 1.25865 36.4635 0.606092 46.4969 1.09552" stroke="#263066" stroke-width="1.5" stroke-linecap="round"/>
<path d="M15.5074 31.3548L13.2737 29.1211C15.4024 22.9606 19.7413 11.3734 25.696 6.31605C31.6508 1.25865 36.4635 0.606092 46.4969 1.09552" stroke="black" stroke-opacity="0.2" stroke-width="1.5" stroke-linecap="round"/>
<path d="M15.1612 31.0135L18.5139 34.3662C24.6745 32.2375 36.2616 27.8987 41.319 21.9439C46.3764 15.9892 47.0289 11.1764 46.5395 1.14308" stroke="#263066" stroke-width="1.5" stroke-linecap="round"/>
<path d="M15.1612 31.0135L18.5139 34.3662C24.6745 32.2375 36.2616 27.8987 41.319 21.9439C46.3764 15.9892 47.0289 11.1764 46.5395 1.14308" stroke="black" stroke-opacity="0.2" stroke-width="1.5" stroke-linecap="round"/>
<path d="M45.6812 13.9019C45.1591 13.5104 37.7687 6.04372 34.1388 2.35938" stroke="#263066" stroke-width="1.5" stroke-linecap="round"/>
<path d="M45.6812 13.9019C45.1591 13.5104 37.7687 6.04372 34.1388 2.35938" stroke="black" stroke-opacity="0.2" stroke-width="1.5" stroke-linecap="round"/>
<path d="M21.3522 11.0469C18.1289 11.8924 11.0033 15.3309 7.60891 22.4099C7.46178 22.7167 7.67151 23.0708 8.01027 23.1028C14.3803 23.7051 15.4417 23.909 15.1527 23.9353" stroke="#263066" stroke-width="1.5" stroke-linecap="round"/>
<path d="M21.3522 11.0469C18.1289 11.8924 11.0033 15.3309 7.60891 22.4099C7.46178 22.7167 7.67151 23.0708 8.01027 23.1028C14.3803 23.7051 15.4417 23.909 15.1527 23.9353" stroke="black" stroke-opacity="0.2" stroke-width="1.5" stroke-linecap="round"/>
<path d="M36.3295 26.454C35.484 29.6774 32.0455 36.8029 24.9665 40.1973C24.6597 40.3444 24.3056 40.1347 24.2736 39.7959C23.6713 33.4259 23.4674 32.3645 23.4411 32.6535" stroke="#263066" stroke-width="1.5" stroke-linecap="round"/>
<path d="M36.3295 26.454C35.484 29.6774 32.0455 36.8029 24.9665 40.1973C24.6597 40.3444 24.3056 40.1347 24.2736 39.7959C23.6713 33.4259 23.4674 32.3645 23.4411 32.6535" stroke="black" stroke-opacity="0.2" stroke-width="1.5" stroke-linecap="round"/>
<path d="M35.3361 15.3266C35.3361 17.2303 33.8411 18.7372 32.0412 18.7372C30.2413 18.7372 28.7463 17.2303 28.7463 15.3266C28.7463 13.4229 30.2413 11.916 32.0412 11.916C33.8411 11.916 35.3361 13.4229 35.3361 15.3266Z" stroke="#263066" stroke-width="1.5"/>
<path d="M35.3361 15.3266C35.3361 17.2303 33.8411 18.7372 32.0412 18.7372C30.2413 18.7372 28.7463 17.2303 28.7463 15.3266C28.7463 13.4229 30.2413 11.916 32.0412 11.916C33.8411 11.916 35.3361 13.4229 35.3361 15.3266Z" stroke="black" stroke-opacity="0.2" stroke-width="1.5"/>
<path d="M1.45819 46.9495L12.7613 35.6465" stroke="#78CBFF" stroke-width="1.5" stroke-linecap="round"/>
<path d="M8.87488 46.9171L16 39.792" stroke="#78CBFF" stroke-width="1.5" stroke-linecap="round"/>
<path d="M1.45819 39.2091L8.58333 32.084" stroke="#78CBFF" stroke-width="1.5" stroke-linecap="round"/>
</svg>
