<?xml version="1.0" encoding="utf-8"?><svg viewBox="0 0 100 48" xmlns="http://www.w3.org/2000/svg" xmlns:xlink="http://www.w3.org/1999/xlink"><style>:root>svg{display:none}:root>svg:target{display:block}</style><svg fill="none" viewBox="0 0 24 24" id="Facebook" xmlns="http://www.w3.org/2000/svg"><path d="M12.801 20V12.7h2.45l.367-2.844H12.8V8.041c0-.823.229-1.384 1.41-1.384l1.506-.001V4.112A20.19 20.19 0 0013.522 4c-2.171 0-3.658 1.325-3.658 3.76v2.097H7.408v2.845h2.456V20h2.937z" fill="#9498A6"/></svg><svg fill="none" viewBox="0 0 24 24" id="Vkontakte" xmlns="http://www.w3.org/2000/svg"><path fill-rule="evenodd" clip-rule="evenodd" d="M19.633 7.643c.111-.37 0-.643-.53-.643h-1.75c-.445 0-.65.235-.761.495 0 0-.89 2.17-2.152 3.58-.407.407-.593.537-.816.537-.11 0-.272-.13-.272-.5V7.642c0-.445-.129-.643-.5-.643h-2.75c-.279 0-.446.207-.446.402 0 .422.63.52.695 1.706v2.578c0 .565-.102.668-.324.668-.593 0-2.037-2.18-2.893-4.673C6.966 7.196 6.798 7 6.351 7H4.6C4.1 7 4 7.235 4 7.495c0 .464.594 2.763 2.763 5.804 1.447 2.077 3.485 3.203 5.339 3.203 1.113 0 1.25-.25 1.25-.68v-1.57c0-.5.106-.6.458-.6.26 0 .705.13 1.743 1.13 1.187 1.188 1.383 1.72 2.05 1.72h1.75c.5 0 .75-.25.606-.743-.157-.492-.724-1.206-1.476-2.052-.408-.482-1.02-1.001-1.205-1.26-.26-.334-.186-.483 0-.78 0 0 2.132-3.003 2.355-4.023z" fill="#9498A6"/></svg><svg fill="none" viewBox="0 0 48 48" id="bag" xmlns="http://www.w3.org/2000/svg"><rect x="20.186" y="31.765" width="7.627" height="1.7" rx=".85" fill="#78CBFF"/><path d="M42.84 27.99v10.349a5 5 0 01-5 5H9.547a5 5 0 01-5-5v-10.35" stroke="#263066" stroke-width="1.5" stroke-linecap="round"/><path d="M42.84 27.99v10.349a5 5 0 01-5 5H9.547a5 5 0 01-5-5v-10.35" stroke="#000" stroke-opacity=".2" stroke-width="1.5" stroke-linecap="round"/><path d="M8.555 13.268h30.277a4.25 4.25 0 014.25 4.25v5.977a48.19 48.19 0 01-38.777 0v-5.977a4.25 4.25 0 014.25-4.25z" stroke="#263066" stroke-width="1.5"/><path d="M8.555 13.268h30.277a4.25 4.25 0 014.25 4.25v5.977a48.19 48.19 0 01-38.777 0v-5.977a4.25 4.25 0 014.25-4.25z" stroke="#000" stroke-opacity=".2" stroke-width="1.5"/><path d="M29.938 9.8a.75.75 0 001.5 0h-1.5zm-13.989 0a.75.75 0 001.5 0h-1.5zm5.75-4.389h3.989v-1.5h-3.989v1.5zm8.239 4.25v.14h1.5v-.14h-1.5zm-12.489.14v-.14h-1.5v.14h1.5zm8.239-4.39a4.25 4.25 0 014.25 4.25h1.5a5.75 5.75 0 00-5.75-5.75v1.5zm-3.989-1.5a5.75 5.75 0 00-5.75 5.75h1.5a4.25 4.25 0 014.25-4.25v-1.5z" fill="#263066"/><path d="M29.938 9.8a.75.75 0 001.5 0h-1.5zm-13.989 0a.75.75 0 001.5 0h-1.5zm5.75-4.389h3.989v-1.5h-3.989v1.5zm8.239 4.25v.14h1.5v-.14h-1.5zm-12.489.14v-.14h-1.5v.14h1.5zm8.239-4.39a4.25 4.25 0 014.25 4.25h1.5a5.75 5.75 0 00-5.75-5.75v1.5zm-3.989-1.5a5.75 5.75 0 00-5.75 5.75h1.5a4.25 4.25 0 014.25-4.25v-1.5z" fill="#000" fill-opacity=".2"/></svg><svg fill="none" viewBox="0 0 16 12" id="check" xmlns="http://www.w3.org/2000/svg"><path d="M14 2l-8.25 8L2 6.364" stroke="#78CBFF" stroke-width="2" stroke-linecap="round" stroke-linejoin="round"/></svg><svg fill="none" viewBox="0 0 24 24" id="chevron-down" xmlns="http://www.w3.org/2000/svg"><path d="M6 9l6 6 6-6" stroke="#C5CED7" stroke-width="2" stroke-linecap="round" stroke-linejoin="round"/></svg><svg fill="none" viewBox="0 0 24 24" id="close" xmlns="http://www.w3.org/2000/svg"><path d="M18 6L6 18M6 6l12 12" stroke="#C5CED7" stroke-width="2" stroke-linecap="round" stroke-linejoin="round"/></svg><svg fill="none" viewBox="0 0 48 48" id="document" xmlns="http://www.w3.org/2000/svg"><path d="M23.989 39.16l1.344-.673a1 1 0 011.247.294l.097.13a1 1 0 001.694-.154l.644-1.287a1 1 0 011.694-.153l1.665 2.22a1 1 0 001.247.294l1.345-.672" stroke="#78CBFF" stroke-width="1.5" stroke-linecap="round"/><path d="M18.761 9.886h9.932M14.58 21.91h18.295M14.58 28.182h11.5M31.83 28.182h1.568" stroke="#D3D3D3" stroke-width="1.5" stroke-linecap="round"/><path d="M19.284 38.636h1.568" stroke="#78CBFF" stroke-width="1.5" stroke-linecap="round"/><path d="M40.943 14.59a.75.75 0 00-1.5 0h1.5zM11.74 1.75h23.454V.25H11.74v1.5zm23.454 44.5H11.74v1.5h23.454v-1.5zM7.49 42V6h-1.5v36h1.5zM39.443 6v3.41h1.5V6h-1.5zm0 8.59V42h1.5V14.59h-1.5zm-7.84-13.067v2.886h1.5V1.523h-1.5zm5.75 8.636h2.84v-1.5h-2.84v1.5zm2.84 0h.84v-1.5h-.84v1.5zM11.74 46.25A4.25 4.25 0 017.489 42h-1.5a5.75 5.75 0 005.75 5.75v-1.5zM31.602 4.41a5.75 5.75 0 005.75 5.75v-1.5a4.25 4.25 0 01-4.25-4.25h-1.5zm3.591 43.34a5.75 5.75 0 005.75-5.75h-1.5a4.25 4.25 0 01-4.25 4.25v1.5zm0-46A4.25 4.25 0 0139.443 6h1.5a5.75 5.75 0 00-5.75-5.75v1.5zM11.74.25A5.75 5.75 0 005.989 6h1.5a4.25 4.25 0 014.25-4.25V.25z" fill="#263066"/><path d="M40.943 14.59a.75.75 0 00-1.5 0h1.5zM11.74 1.75h23.454V.25H11.74v1.5zm23.454 44.5H11.74v1.5h23.454v-1.5zM7.49 42V6h-1.5v36h1.5zM39.443 6v3.41h1.5V6h-1.5zm0 8.59V42h1.5V14.59h-1.5zm-7.84-13.067v2.886h1.5V1.523h-1.5zm5.75 8.636h2.84v-1.5h-2.84v1.5zm2.84 0h.84v-1.5h-.84v1.5zM11.74 46.25A4.25 4.25 0 017.489 42h-1.5a5.75 5.75 0 005.75 5.75v-1.5zM31.602 4.41a5.75 5.75 0 005.75 5.75v-1.5a4.25 4.25 0 01-4.25-4.25h-1.5zm3.591 43.34a5.75 5.75 0 005.75-5.75h-1.5a4.25 4.25 0 01-4.25 4.25v1.5zm0-46A4.25 4.25 0 0139.443 6h1.5a5.75 5.75 0 00-5.75-5.75v1.5zM11.74.25A5.75 5.75 0 005.989 6h1.5a4.25 4.25 0 014.25-4.25V.25z" fill="#000" fill-opacity=".2"/></svg><svg fill="none" viewBox="0 0 20 20" id="envelope" xmlns="http://www.w3.org/2000/svg"><path d="M15.833 3.333H4.167a2.5 2.5 0 00-2.5 2.5v8.334a2.5 2.5 0 002.5 2.5h11.666a2.5 2.5 0 002.5-2.5V5.833a2.5 2.5 0 00-2.5-2.5zM15.492 5l-4.9 4.9a.834.834 0 01-1.184 0L4.508 5h10.984zm1.175 9.167a.833.833 0 01-.834.833H4.167a.833.833 0 01-.834-.833V6.175l4.9 4.9a2.5 2.5 0 003.534 0l4.9-4.9v7.992z" fill="#fff"/></svg><svg fill="none" viewBox="0 0 24 24" id="file-upload" xmlns="http://www.w3.org/2000/svg"><path d="M11.5 4v-.5H6A1.5 1.5 0 004.5 5v14A1.5 1.5 0 006 20.5h7a.5.5 0 010 1H6A2.5 2.5 0 013.5 19V5A2.5 2.5 0 016 2.5h6.013a.38.38 0 01.118.044l.15.085.072-.01a.572.572 0 01.05.04l5.987 5.988c.018.02.035.04.05.063v.042l.026.077a.809.809 0 01.034.143V12a.5.5 0 01-1 0V9.5H14A2.5 2.5 0 0111.5 7V4zm1.854 1.056l-.854-.853V7A1.5 1.5 0 0014 8.5h2.797l-.853-.854-2.59-2.59zm7.002 12.588l.002.001a.498.498 0 010 .71l-.003.003a.498.498 0 01-.708.002l-.287-.297-.86-.89V21a.5.5 0 01-1 0v-3.827l-.86.89-.286.296a.504.504 0 01-.71-.715l1.995-1.996a.499.499 0 01.162-.102h0l.009-.003a.5.5 0 01.38 0h0l.01.003c.06.023.114.058.161.102l1.995 1.996zM7.646 8.646A.5.5 0 018 8.5h1a.5.5 0 010 1H8a.5.5 0 01-.354-.854zm0 4A.5.5 0 018 12.5h6a.5.5 0 010 1H8a.5.5 0 01-.354-.854zm4.708 4.708A.5.5 0 0112 17.5H8a.5.5 0 010-1h4a.5.5 0 01.354.854z" stroke="#72C1F2"/></svg><svg fill="none" viewBox="0 0 48 48" id="hand-wolrd" xmlns="http://www.w3.org/2000/svg"><path d="M2.924 42.55h2.57a1 1 0 001-1V30.272c0-.265.105-.519.285-.713 1.12-1.208 2.94-3.42 6.143-3.42 3.733 0 6.347 1.055 10.51 3.271 3.885 2.068 6.176 3.415 5.505 5.497-.751 2.327-3.068 1.802-4.568 1.175l-5.776-2.653m-8.99 6.41c.443.332 7.428 4.878 11.752 4.878 3.46 0 13.49-4.657 18.073-6.985 3.847-1.955 6.43-2.825 5.433-5.433-.424-1.109-1.57-2.441-4.768-1.109-2.66 1.109-8.158 3.724-11.156 4.892" stroke="#263066" stroke-width="1.5" stroke-linecap="round"/><path d="M2.924 42.55h2.57a1 1 0 001-1V30.272c0-.265.105-.519.285-.713 1.12-1.208 2.94-3.42 6.143-3.42 3.733 0 6.347 1.055 10.51 3.271 3.885 2.068 6.176 3.415 5.505 5.497-.751 2.327-3.068 1.802-4.568 1.175l-5.776-2.653m-8.99 6.41c.443.332 7.428 4.878 11.752 4.878 3.46 0 13.49-4.657 18.073-6.985 3.847-1.955 6.43-2.825 5.433-5.433-.424-1.109-1.57-2.441-4.768-1.109-2.66 1.109-8.158 3.724-11.156 4.892" stroke="#000" stroke-opacity=".2" stroke-width="1.5" stroke-linecap="round"/><circle cx="29.251" cy="13.744" r="9.711" stroke="#263066" stroke-width="1.5"/><circle cx="29.251" cy="13.744" r="9.711" stroke="#000" stroke-opacity=".2" stroke-width="1.5"/><path d="M32.913 13.744c0 2.814-.482 5.325-1.233 7.106-.376.891-.805 1.565-1.243 2.004-.435.436-.835.601-1.186.601-.352 0-.752-.165-1.187-.601-.438-.44-.866-1.113-1.243-2.004-.75-1.78-1.233-4.292-1.233-7.106 0-2.813.482-5.325 1.233-7.105.377-.892.805-1.565 1.243-2.004.435-.436.835-.602 1.187-.602.351 0 .751.166 1.186.602.438.439.867 1.112 1.243 2.004.75 1.78 1.233 4.292 1.233 7.105z" stroke="#263066" stroke-width="1.5"/><path d="M32.913 13.744c0 2.814-.482 5.325-1.233 7.106-.376.891-.805 1.565-1.243 2.004-.435.436-.835.601-1.186.601-.352 0-.752-.165-1.187-.601-.438-.44-.866-1.113-1.243-2.004-.75-1.78-1.233-4.292-1.233-7.106 0-2.813.482-5.325 1.233-7.105.377-.892.805-1.565 1.243-2.004.435-.436.835-.602 1.187-.602.351 0 .751.166 1.186.602.438.439.867 1.112 1.243 2.004.75 1.78 1.233 4.292 1.233 7.105z" stroke="#000" stroke-opacity=".2" stroke-width="1.5"/><path d="M19.88 13.794h18.74" stroke="#263066" stroke-width="1.5" stroke-linecap="round"/><path d="M19.88 13.794h18.74" stroke="#000" stroke-opacity=".2" stroke-width="1.5" stroke-linecap="round"/><path d="M9.766 22.322c-.926-3.207-1.944-11.126 1.388-17.155" stroke="#78CBFF" stroke-width="1.5" stroke-linecap="round"/><path d="M31.611 31.523l3.382-1.608c1.035-.425 3.315-.843 4.158.887" stroke="#263066" stroke-width="1.5" stroke-linecap="round"/><path d="M31.611 31.523l3.382-1.608c1.035-.425 3.315-.843 4.158.887" stroke="#000" stroke-opacity=".2" stroke-width="1.5" stroke-linecap="round"/><path d="M13.47 9.496l-1.699-3.94a1 1 0 00-1.416-.471L6.19 7.475" stroke="#78CBFF" stroke-width="1.5" stroke-linecap="round"/></svg><svg fill="none" viewBox="0 0 48 48" id="human-document" xmlns="http://www.w3.org/2000/svg"><path d="M21.61 8.886h8.995M21.61 20.91h12.813M21.61 25.058h12.813M21.61 29.067h6.205M32.855 29.067h1.568" stroke="#D3D3D3" stroke-width="1.5" stroke-linecap="round"/><circle cx="11.414" cy="12.878" r="3.328" stroke="#78CBFF" stroke-width="1.5"/><path d="M3.424 42.506v-5.992M3.424 33.351l.5-7.99c.499-3.495 1.414-5.242 4.244-5.742M18.488 33.351l-.5-7.99c-.499-3.495-1.414-5.242-4.244-5.742M7.17 34.515v11.488c0 .552.447.997 1 .997h6.405a1 1 0 001-1V34.518a1 1 0 00-1-1H8.169c-.552 0-1 .444-1 .997zM11.164 37.18v9.379" stroke="#78CBFF" stroke-width="1.5" stroke-linecap="round"/><path d="M3.424 47h25.054" stroke="#263066" stroke-width="1.5" stroke-linecap="round"/><path d="M3.424 47h25.054" stroke="#000" stroke-opacity=".2" stroke-width="1.5" stroke-linecap="round"/><path d="M40.943 14.59a.75.75 0 00-1.5 0h1.5zM11.617.25a.75.75 0 000 1.5V.25zm23.482 46a.75.75 0 000 1.5v-1.5zM39.443 6v3.41h1.5V6h-1.5zm0 8.59V42h1.5V14.59h-1.5zm-7.84-13.067v2.886h1.5V1.523h-1.5zm5.75 8.636h2.84v-1.5h-2.84v1.5zm2.84 0h.846v-1.5h-.846v1.5zM23.414 1.75h11.78V.25h-11.78v1.5zm-11.797 0h11.797V.25H11.617v1.5zm23.576 44.5H35.1v1.5h.094v-1.5zm4.25-4.25a4.25 4.25 0 01-4.25 4.25v1.5a5.75 5.75 0 005.75-5.75h-1.5zm-7.84-37.59a5.75 5.75 0 005.75 5.75v-1.5a4.25 4.25 0 01-4.25-4.25h-1.5zM40.942 6a5.75 5.75 0 00-5.75-5.75v1.5A4.25 4.25 0 0139.443 6h1.5z" fill="#263066"/><path d="M40.943 14.59a.75.75 0 00-1.5 0h1.5zM11.617.25a.75.75 0 000 1.5V.25zm23.482 46a.75.75 0 000 1.5v-1.5zM39.443 6v3.41h1.5V6h-1.5zm0 8.59V42h1.5V14.59h-1.5zm-7.84-13.067v2.886h1.5V1.523h-1.5zm5.75 8.636h2.84v-1.5h-2.84v1.5zm2.84 0h.846v-1.5h-.846v1.5zM23.414 1.75h11.78V.25h-11.78v1.5zm-11.797 0h11.797V.25H11.617v1.5zm23.576 44.5H35.1v1.5h.094v-1.5zm4.25-4.25a4.25 4.25 0 01-4.25 4.25v1.5a5.75 5.75 0 005.75-5.75h-1.5zm-7.84-37.59a5.75 5.75 0 005.75 5.75v-1.5a4.25 4.25 0 01-4.25-4.25h-1.5zM40.942 6a5.75 5.75 0 00-5.75-5.75v1.5A4.25 4.25 0 0139.443 6h1.5z" fill="#000" fill-opacity=".2"/></svg><svg fill="none" viewBox="0 0 24 24" id="instagram" xmlns="http://www.w3.org/2000/svg"><path d="M9.469 5.25h5.062a4.22 4.22 0 014.219 4.219v5.062a4.22 4.22 0 01-4.219 4.219H9.47a4.22 4.22 0 01-4.219-4.219V9.47A4.22 4.22 0 019.469 5.25zm-2.953 9.281a2.956 2.956 0 002.953 2.953h5.062a2.956 2.956 0 002.953-2.953V9.47a2.956 2.956 0 00-2.953-2.953H9.47a2.956 2.956 0 00-2.953 2.953v5.062z" fill="#9498A6"/><path d="M12 8.625a3.375 3.375 0 110 6.75 3.375 3.375 0 010-6.75zm0 5.484c1.163 0 2.11-.946 2.11-2.109 0-1.164-.947-2.11-2.11-2.11-1.163 0-2.11.946-2.11 2.11 0 1.163.947 2.11 2.11 2.11zM8.372 8.821a.45.45 0 110-.9.45.45 0 010 .9z" fill="#9498A6"/></svg><svg fill="none" viewBox="0 0 100 24" id="logo" xmlns="http://www.w3.org/2000/svg"><g clip-path="url(#mclip0_622_8000)"><path d="M6.545 17.454v2.47H0v-2.47h2.01V8.268H0V5.97h4.536v11.483h2.01zM3.043 0a1.723 1.723 0 011.665 1.665A1.63 1.63 0 013.043 3.33a1.596 1.596 0 01-1.665-1.665A1.665 1.665 0 013.043 0zm9.818 17.857a3.243 3.243 0 001.493-.402v2.468c-.712.29-1.47.446-2.24.46-2.583 0-2.927-1.378-2.927-3.847V8.268H7.349V5.97h1.838V4.077l2.526-2.067V5.97h2.641v2.297h-2.641v7.809c0 1.263.23 1.78 1.148 1.78z" fill="#88C8EF"/><path d="M22.91 17.742a5.249 5.249 0 004.478-2.47l2.239 1.15a7.368 7.368 0 01-6.718 3.903c-4.363 0-7.177-2.87-7.177-7.406s2.928-7.407 7.005-7.407c4.249 0 6.832 2.928 6.832 8.096H18.546c.057 2.526 1.78 4.134 4.363 4.134zm3.789-6.144c-.288-2.411-1.723-3.675-4.02-3.675-2.296 0-3.789 1.321-3.961 3.675h7.98zm4.937 3.617h2.24c.23 1.838 1.607 2.929 3.674 2.929 1.723 0 2.756-.862 2.756-1.895 0-1.034-.861-1.55-2.584-1.952l-2.124-.517c-2.698-.632-3.962-1.837-3.962-4.02 0-2.296 2.067-4.19 4.88-4.19a5.524 5.524 0 013.733 1.377V5.914h2.182v4.593h-2.182c-.172-1.665-1.55-2.813-3.617-2.813-1.493 0-2.412.746-2.412 1.837s.804 1.493 2.297 1.78l2.411.517c2.641.574 3.962 1.837 3.962 4.019 0 2.699-2.01 4.536-5.168 4.536a5.403 5.403 0 01-3.789-1.378v.976h-2.24v-4.766h-.057zm20.326-7.177c-2.641 0-4.364 1.838-4.364 4.88 0 3.044 1.723 4.824 4.306 4.824a4.96 4.96 0 004.421-2.814l2.24 1.091a7.01 7.01 0 01-6.66 4.306c-4.192 0-7.12-2.87-7.12-7.349 0-4.364 2.928-7.407 6.775-7.407a5.96 5.96 0 014.134 1.608V5.914h2.239v5.225h-2.24c-.516-2.067-1.837-3.1-3.731-3.1zM67.12 20.325c-4.134 0-7.005-2.87-7.005-7.406s2.928-7.407 7.005-7.407c4.076 0 7.062 2.928 7.062 7.407 0 4.478-2.928 7.406-7.062 7.406zm4.248-7.406c0-3.043-1.607-4.823-4.248-4.823-2.642 0-4.25 1.78-4.25 4.823s1.723 4.823 4.25 4.823c2.526 0 4.248-1.723 4.248-4.823zM77.627 8.268h-2.01V5.971h4.421v2.756c.976-2.181 2.297-2.985 4.479-2.985h1.033V8.44c-.344 0-.689-.057-1.033-.057-3.158 0-4.364 1.837-4.364 5.397v3.675h2.526v2.469h-7.004v-2.47h2.01l-.058-9.186zM92.498 17.856a3.244 3.244 0 001.492-.402v2.47a6.2 6.2 0 01-2.181.459c-2.584 0-2.929-1.378-2.929-3.847V8.268h-1.837V5.97h1.837V4.077l2.527-2.067V5.97h2.583v2.297h-2.583v7.808c-.058 1.264.172 1.78 1.09 1.78zm4.076-11.942h3.33v3.502h-3.33V5.914zm.115 10.507h3.273v3.56c0 2.526-1.091 3.847-3.33 4.019v-1.608c1.205-.287 1.607-.746 1.607-2.01v-.459h-1.493l-.057-3.502z" fill="#263066"/></g><defs><clipPath id="mclip0_622_8000"><path fill="#fff" d="M0 0h99.962v24H0z"/></clipPath></defs></svg><svg fill="none" viewBox="0 0 25 24" id="right-wh" xmlns="http://www.w3.org/2000/svg"><path d="M13.97 8.53a.75.75 0 011.06-1.06l4 4a.75.75 0 010 1.06l-4 4a.75.75 0 11-1.06-1.06l2.72-2.72H7a.75.75 0 010-1.5h9.69l-2.72-2.72z" fill="#fff"/></svg></svg>